<svg xmlns="http://www.w3.org/2000/svg" width="500" height="499" viewBox="0 0 500 499" version="1.1"><path d="M 369 151.622 C 363.775 153.561, 357.137 156.014, 354.250 157.074 C 351.363 158.133, 346.637 159.870, 343.750 160.933 C 340.863 161.995, 332.650 164.955, 325.500 167.510 C 310.023 173.040, 302.219 175.896, 299.500 177.026 C 291.751 180.247, 282.022 183.329, 279.500 183.362 C 276.847 183.397, 266.767 179.994, 237 169.014 C 232.325 167.290, 224.900 164.594, 220.500 163.024 C 210.923 159.606, 201.463 156.194, 190.096 152.058 C 185.474 150.376, 181.484 149, 181.230 149 C 180.422 149, 181.651 153.210, 185.463 163.500 C 187.501 169, 189.540 174.625, 189.995 176 C 190.449 177.375, 192.241 182.325, 193.976 187 C 195.711 191.675, 199.372 201.800, 202.112 209.500 C 204.852 217.200, 207.479 224.400, 207.949 225.500 C 209.148 228.302, 212.560 237.555, 214.596 243.526 C 216.505 249.123, 216.815 247.710, 209.004 269 C 207.289 273.675, 205.062 279.750, 204.055 282.500 C 203.048 285.250, 200.800 291.550, 199.060 296.500 C 195.837 305.666, 192.454 314.897, 190.996 318.500 C 186.427 329.787, 180.710 347.043, 181.332 347.666 C 181.643 347.977, 183.158 347.763, 184.699 347.191 C 186.240 346.619, 189.975 345.243, 193 344.133 C 196.025 343.022, 202.325 340.705, 207 338.984 C 211.675 337.262, 221.125 333.814, 228 331.322 C 234.875 328.829, 242.750 325.963, 245.500 324.952 C 284.127 310.752, 278.712 311.581, 294.500 317.450 C 300 319.495, 305.625 321.540, 307 321.995 C 308.375 322.449, 313.325 324.252, 318 326.001 C 322.675 327.749, 329.425 330.224, 333 331.500 C 336.575 332.776, 343.325 335.236, 348 336.967 C 371.623 345.713, 379.071 348.263, 379.562 347.771 C 379.942 347.391, 377.420 339.922, 370.858 322 C 369.750 318.975, 368.469 315.375, 368.011 314 C 367.553 312.625, 365.748 307.675, 363.999 303 C 362.251 298.325, 359.776 291.575, 358.500 288 C 357.224 284.425, 354.760 277.675, 353.024 273 C 347.952 259.338, 346.900 256.061, 347.168 254.743 C 347.306 254.059, 346.871 252.508, 346.200 251.297 C 344.794 248.758, 346.779 242.480, 360.994 204.500 C 362.023 201.750, 364.955 193.650, 367.510 186.500 C 372.762 171.799, 375.819 163.429, 377.004 160.500 C 379.145 155.212, 381 149.863, 381 148.980 C 381 147.444, 379.176 147.846, 369 151.622" stroke="none" fill="#fa6304" fill-rule="evenodd"/><path d="M 175.003 78.099 C 152.527 83.914, 132.622 99.900, 121.586 121 C 119.090 125.771, 74.380 257.915, 61.699 298 C 61.090 299.925, 60.234 301.927, 59.796 302.450 C 59.358 302.972, 59 304.408, 59 305.641 C 59 306.874, 58.550 308.160, 58 308.500 C 57.450 308.840, 57 309.998, 57 311.073 C 57 312.148, 56.565 313.809, 56.032 314.764 C 55.500 315.719, 52.096 325.725, 48.468 337 C 44.840 348.275, 41.496 358.400, 41.037 359.500 C 37.958 366.876, 37.521 369.274, 37.570 378.500 C 37.620 387.734, 37.882 389.036, 40.982 395.500 C 46.610 407.236, 56.655 416.022, 68.899 419.918 C 73.664 421.435, 317.601 421.437, 323.384 419.921 C 333.607 417.240, 335.900 416.446, 342.158 413.420 C 352.362 408.484, 359.975 402.887, 367.575 394.734 C 379.053 382.420, 381.298 377.453, 397.509 328.500 C 405.524 304.300, 412.557 283.547, 413.139 282.381 C 413.721 281.216, 414.040 279.477, 413.849 278.517 C 413.476 276.652, 413.295 276.572, 393.500 269.494 C 386.350 266.937, 378.250 264.011, 375.500 262.990 C 372.750 261.970, 365.570 259.308, 359.544 257.074 C 352.563 254.486, 348.241 253.359, 347.630 253.970 C 346.607 254.993, 347.559 258.360, 353.013 273 C 354.755 277.675, 357.224 284.425, 358.500 288 C 359.776 291.575, 362.251 298.325, 363.999 303 C 365.748 307.675, 367.551 312.625, 368.005 314 C 368.460 315.375, 370.474 321, 372.480 326.500 C 378.920 344.151, 379.983 347.350, 379.553 347.780 C 379.042 348.291, 375.234 346.978, 345 335.864 C 341.975 334.752, 336.575 332.794, 333 331.511 C 329.425 330.229, 322.675 327.749, 318 326.001 C 313.325 324.252, 308.375 322.449, 307 321.995 C 305.625 321.540, 300 319.495, 294.500 317.450 C 278.712 311.581, 284.127 310.752, 245.500 324.952 C 242.750 325.963, 234.650 328.914, 227.500 331.510 C 211.148 337.446, 206.573 339.119, 196 343.030 C 191.325 344.759, 186.240 346.637, 184.699 347.203 C 183.158 347.768, 181.643 347.977, 181.332 347.666 C 180.710 347.043, 186.427 329.787, 190.996 318.500 C 192.468 314.862, 195.853 305.623, 198.872 297 C 200.509 292.325, 203.258 284.675, 204.981 280 C 217.196 246.857, 216.558 249.278, 214.596 243.526 C 212.560 237.555, 209.148 228.302, 207.949 225.500 C 207.479 224.400, 204.852 217.200, 202.112 209.500 C 199.372 201.800, 195.711 191.675, 193.976 187 C 192.241 182.325, 190.449 177.375, 189.995 176 C 189.540 174.625, 187.501 169, 185.463 163.500 C 181.651 153.210, 180.422 149, 181.230 149 C 181.484 149, 185.474 150.376, 190.096 152.058 C 201.463 156.194, 210.923 159.606, 220.500 163.024 C 224.900 164.594, 232.325 167.289, 237 169.012 C 272.771 182.198, 280.604 184.803, 279.624 183.187 C 279.394 182.809, 277.558 178, 275.542 172.500 C 273.527 167, 271.036 160.250, 270.006 157.500 C 268.977 154.750, 266.044 146.650, 263.489 139.500 C 260.933 132.350, 257.483 122.900, 255.822 118.500 C 254.161 114.100, 251.903 108.025, 250.806 105 C 249.709 101.975, 247.978 97.362, 246.961 94.750 C 245.943 92.138, 245.425 90, 245.810 90 C 246.194 90, 249.657 91.157, 253.504 92.571 C 273.042 99.750, 279.892 102.228, 284 103.599 C 286.475 104.425, 289.400 105.484, 290.500 105.953 C 293.089 107.056, 300.395 109.736, 316.500 115.490 C 323.650 118.045, 331.750 120.988, 334.500 122.032 C 344.221 125.720, 344.664 125.679, 360.575 119.632 C 362.734 118.812, 370.350 116.049, 377.500 113.493 C 393.012 107.947, 400.789 105.100, 403.500 103.975 C 404.600 103.518, 411.350 101.057, 418.500 98.505 C 425.650 95.953, 433.879 92.937, 436.786 91.802 C 439.693 90.667, 442.264 89.930, 442.498 90.165 C 442.845 90.512, 432.082 121.153, 429.032 128.500 C 428.575 129.600, 427.661 132.075, 427 134 C 426.339 135.925, 425.426 138.400, 424.971 139.500 C 424.517 140.600, 422.057 147.350, 419.505 154.500 C 414.197 169.372, 411.845 175.798, 408.969 183.291 C 406.942 188.569, 406.942 188.595, 408.903 193.541 C 409.984 196.269, 413.845 206.825, 417.482 217 C 424.533 236.721, 425.279 238.500, 426.500 238.500 C 426.930 238.500, 427.659 237.825, 428.121 237 C 428.582 236.175, 437.068 211.093, 446.979 181.263 C 464.546 128.393, 465 126.817, 464.985 118.763 C 464.955 101.617, 456.120 87.593, 440.521 79.929 L 433.543 76.500 308.021 76.330 C 186.748 76.165, 182.246 76.225, 175.003 78.099" stroke="none" fill="#050504" fill-rule="evenodd"/></svg>